<?xml version="1.0" encoding="UTF-8" standalone="no"?>
<svg
   xmlns:dc="http://purl.org/dc/elements/1.1/"
   xmlns:cc="http://creativecommons.org/ns#"
   xmlns:rdf="http://www.w3.org/1999/02/22-rdf-syntax-ns#"
   xmlns:svg="http://www.w3.org/2000/svg"
   xmlns="http://www.w3.org/2000/svg"
   xmlns:sodipodi="http://sodipodi.sourceforge.net/DTD/sodipodi-0.dtd"
   xmlns:inkscape="http://www.inkscape.org/namespaces/inkscape"
   width="129.49364"
   height="129.64516"
   viewBox="0 0 129.49329 129.64552"
   id="svg2"
   version="1.1"
   inkscape:version="0.91 r13725"
   sodipodi:docname="stslogo.svg">
  <metadata
     id="metadata18">
    <rdf:RDF>
      <cc:Work
         rdf:about="">
        <dc:format>image/svg+xml</dc:format>
        <dc:type
           rdf:resource="http://purl.org/dc/dcmitype/StillImage" />
        <dc:title></dc:title>
      </cc:Work>
    </rdf:RDF>
  </metadata>
  <defs
     id="defs16" />
  <sodipodi:namedview
     pagecolor="#ffffff"
     bordercolor="#666666"
     borderopacity="1"
     objecttolerance="10"
     gridtolerance="10"
     guidetolerance="10"
     inkscape:pageopacity="0"
     inkscape:pageshadow="2"
     inkscape:window-width="1282"
     inkscape:window-height="669"
     id="namedview14"
     showgrid="false"
     inkscape:zoom="3.6021398"
     inkscape:cx="64.74682"
     inkscape:cy="64.82258"
     inkscape:window-x="0"
     inkscape:window-y="0"
     inkscape:window-maximized="0"
     inkscape:current-layer="layer1"
     fit-margin-top="0"
     fit-margin-left="0"
     fit-margin-right="0"
     fit-margin-bottom="0" />
  <g
     inkscape:groupmode="layer"
     id="layer1"
     inkscape:label="backgroundWhite"
     style="display:inline"
     transform="translate(-0.48866663,-2.9299059)">
    <rect
       style="opacity:1;fill:#ffffff;fill-opacity:1;fill-rule:nonzero;stroke:none;stroke-width:3;stroke-linecap:butt;stroke-linejoin:miter;stroke-miterlimit:4;stroke-dasharray:none;stroke-dashoffset:0;stroke-opacity:1"
       id="rect4174"
       width="129.01947"
       height="129.62674"
       x="0.57277763"
       y="2.9299059"
       rx="18"
       ry="18" />
  </g>
  <g
     inkscape:groupmode="layer"
     id="layer2"
     inkscape:label="top"
     style="display:inline"
     sodipodi:insensitive="true"
     transform="translate(-0.48866663,-2.9299059)">
    <g
       id="g4176">
      <path
         id="path4"
         d="m 28.194308,75.525426 c -0.022,0.205 -0.037,0.414 -0.037,0.625 l 0,14.3 c 0,-5.792 0.02,-14.39 0.02,-14.39 -0.002,-0.18 0.006,-0.36 0.017,-0.535"
         style="fill:#0994dc"
         inkscape:connector-curvature="0" />
      <path
         id="path6"
         d="m 22.043308,89.606427 c 5.784,0 9.57,-3.250001 12.905,-6.120001 2.882,-2.473999 5.156,-4.428 8.657,-4.428 3.492,0 5.766,1.954001 8.646,4.427 3.34,2.872 7.126,6.120001 12.907,6.120001 5.782,0 9.566,-3.248001 12.904,-6.120001 2.884,-2.472999 5.157,-4.427 8.654,-4.427 3.495,0 5.77,1.954001 8.65,4.427 3.345,2.872 7.128002,6.120001 12.906002,6.120001 5.786,0 9.566,-3.248001 12.904,-6.120001 2.865,-2.459999 5.13,-4.4 8.593,-4.424 l 0,-14.533 c -5.9,-2.89 -11.752,-5.269999 -17.493,-7.278 -20.080002,-7.016 -40.890002,-9.342 -61.470002,-7.63 -15.137,1.34 -27.31,4.5 -36.757,8.006 -4.4789999,1.659 -8.9469999,3.366 -13.29199995,5.386 -0.171,0.083 -0.267,16.045 -0.267,16.045 3.49000005,0 5.76700005,1.954001 8.64700005,4.427 3.3419999,2.872 7.1239999,6.120001 12.9059999,6.120001"
         style="fill:#51af2f"
         inkscape:connector-curvature="0" />
      <path
         id="path8"
         d="m 113.25231,126.52443 -6.387,-10.563 6.387,-10.56 0,21.122 z m -20.020002,-2.762 c -5.744,0 -10.78,-3.116 -13.626,-7.8 2.845,-4.684 7.882,-7.8 13.626,-7.8 5.744,0 10.780002,3.116 13.626002,7.8 -2.845,4.684 -7.882002,7.8 -13.626002,7.8 z M 129.96931,99.649426 c -0.003,-6.52 -0.047,-11.863 -0.097,-11.87 l -0.048,0 c -3.495,0 -5.772,1.955 -8.65,4.43 -3.34,2.866 -7.12,6.12 -12.905,6.12 -5.778,0 -9.560002,-3.254 -12.905002,-6.12 -2.88,-2.475 -5.157,-4.43 -8.65,-4.43 -3.498,0 -5.77,1.955 -8.655,4.43 -3.337,2.866 -7.12,6.12 -12.903,6.12 -5.78,0 -9.566,-3.254 -12.906,-6.12 -2.88,-2.475 -5.153,-4.43 -8.645,-4.43 -3.5,0 -5.775,1.958 -8.657,4.43 -3.334,2.866 -7.12,6.12 -12.905,6.12 -5.782,0 -9.564,-3.254 -12.9059999,-6.12 l -2.88,-2.475 c -3.19,-2.289999 -5.76700005,-2.289999 -5.76700005,-2.289999 l 0,33.383003 c 0,0.133 0.016,0.263 0.02,0.394 0.21,6.29 4.29300005,11.354 9.26800005,11.354 l 47.9199999,0 c 1.124,-2.292 1.588,-4.583 1.7,-6.874 -0.776,-8.186 -5.798,-16.372 0.852,-24.56 -4.8,8.205 2.126,16.41 4.75,24.614 0.957,2.273 1.563,4.547 1.52,6.82 l 1.946,0 c 1.127,-2.292 1.59,-4.583 1.702,-6.874 -0.777,-8.186 -5.798,-16.372 0.853,-24.56 -4.8,8.205 2.126,16.41 4.75,24.614 0.957,2.273 1.563,4.547 1.52,6.82 l 43.410002,0 c 4.236,0 7.824,-3.677 8.925,-8.652 0.227,-1.022 0.356,-2.094 0.356,-3.205 l -0.01,-21.070004"
         style="fill:#00aaa7"
         inkscape:connector-curvature="0" />
      <path
         id="path10"
         d="m 44.748308,19.820426 c 1.733,2.58 3.358,7.126 3.617,9.61 0.694,6.67 -3.526,10.967 -3.526,10.967 0,0 -2.39,-13.444 -9.025,-15.292 -9.257,3.137 -20.37,6.458 -20.37,6.458 0,0 14.746,-13.193998 14.639,-14.357998 -1.878,-6.933 -13.707,-10.3380002 -13.707,-10.3380002 0,0 8.01,-1.637 12.727,-0.512 4.717,1.126 11.12,7.3850002 11.12,7.3850002 0,0 2.076,-0.934 4.744,-0.924 2.828,0.012 4.692,1.863 4.692,1.863 l 3.298,0.964 c 0,0 -7.213,3.676 -8.21,4.177998 z m 84.865002,-5.249998 c 0.005,-2.014 -0.392,-3.914 -1.092,-5.5800002 -2.024,-3.561 -5.846,-5.978 -10.213,-5.978 l -106.068002,0 c -6.0199999,0 -11.0169999,4.59 -11.67399995,10.4420002 -0.024,0.37 -0.04,0.74 -0.038,1.117 0,0 -0.04,17.951998 -0.04,30.046999 0,4.732999 0.004,8.769999 0.02,10.837999 0.007,-0.065 0.013,-0.113 0.02,-0.115 4.34700005,-2.02 8.81600005,-3.727 13.28999995,-5.383999 9.45,-3.504001 21.62,-6.666001 36.758,-8.004001 20.58,-1.714 41.39,0.612 61.470002,7.628 5.74,2.007 17.567,7.747 17.567,7.747 l -0.002,-42.757998"
         style="fill:#0994dc;fill-rule:evenodd"
         inkscape:connector-curvature="0" />
    </g>
  </g>
</svg>
